<svg width="300" height="60" viewBox="0 0 300 60" fill="none" xmlns="http://www.w3.org/2000/svg">
<g clip-path="url(#clip0_1_34)">
<path d="M18.3196 25.2113L29.9538 13.5629L41.5928 25.2208L48.3586 18.4393L29.9538 0L11.5491 18.4346L18.3196 25.2113Z" fill="white" fill-opacity="0.5"/>
<path d="M-0.00241089 30.001L6.7656 23.222L13.5336 30.001L6.7656 36.78L-0.00241089 30.001Z" fill="white" fill-opacity="0.5"/>
<path d="M18.3196 34.7887L29.9539 46.4418L41.5928 34.784L48.3633 41.556L48.3586 41.5607L29.9539 60L11.5491 41.5702L11.5396 41.5607L18.3196 34.7887Z" fill="white" fill-opacity="0.5"/>
<path d="M46.3626 30.0027L53.1306 23.2237L59.8986 30.0027L53.1306 36.7817L46.3626 30.0027Z" fill="white" fill-opacity="0.5"/>
<path d="M36.819 29.9976L29.9539 23.1167L24.8772 28.2016L24.2905 28.7845L23.0887 29.9882L23.0793 29.9976L23.0887 30.0118L29.9539 36.8833L36.819 30.0024L36.8237 29.9976H36.819Z" fill="white" fill-opacity="0.5"/>
<path d="M70.4585 14.5391H85.1823C88.8349 14.5391 91.5979 15.4869 93.4715 17.3825C94.1774 18.0827 94.7339 18.9193 95.1072 19.8415C95.4805 20.7636 95.6629 21.7521 95.6432 22.747V22.8371C95.6559 23.6521 95.5426 24.4642 95.3073 25.2445C95.0977 25.9162 94.7934 26.5545 94.4036 27.14C94.0402 27.6922 93.6006 28.19 93.0978 28.6186C92.6065 29.0421 92.0683 29.4078 91.4938 29.7086C93.1505 30.2865 94.6403 31.2629 95.8324 32.5519C96.8859 33.7525 97.4127 35.4111 97.4127 37.5278V37.6179C97.4426 38.9398 97.1555 40.2497 96.5753 41.4375C96.0131 42.5319 95.1889 43.4697 94.1765 44.1671C93.0319 44.9357 91.7574 45.4897 90.4151 45.8021C88.8204 46.1809 87.1855 46.3639 85.5466 46.3471H70.4585V14.5391ZM83.7061 27.4007C84.98 27.4623 86.2477 27.1878 87.3823 26.6045C87.8248 26.3457 88.1861 25.9678 88.4253 25.5139C88.6644 25.0599 88.7719 24.548 88.7355 24.036V23.946C88.7589 23.4742 88.6633 23.0042 88.4573 22.5793C88.2514 22.1544 87.9419 21.7883 87.5574 21.5149C86.772 20.9557 85.6381 20.6761 84.1556 20.6761H77.2668V27.4007H83.7061ZM85.5655 40.2196C86.8347 40.2908 88.0979 39.9999 89.2086 39.3808C89.6413 39.1023 89.9916 38.7128 90.2229 38.2527C90.4542 37.7926 90.5582 37.2789 90.5239 36.7649V36.6748C90.541 36.1863 90.4382 35.701 90.2245 35.2615C90.0109 34.822 89.693 34.4416 89.2985 34.1537C88.4847 33.5218 87.1694 33.2059 85.3526 33.2059H77.2668V40.2196H85.5655Z" fill="white" fill-opacity="0.5"/>
<path d="M106.185 14.5391H113.173V46.3565H106.185V14.5391Z" fill="white" fill-opacity="0.5"/>
<path d="M123.747 14.5391H130.191L145.085 34.1205V14.5391H151.983V46.3565H146.036L130.655 26.1306V46.3565H123.747V14.5391Z" fill="white" fill-opacity="0.5"/>
<path d="M173.142 14.3117H179.576L193.188 46.3565H185.893L182.988 39.2197H169.556L166.65 46.3565H159.525L173.142 14.3117ZM180.494 33.04L176.264 22.7186L172.054 33.04H180.494Z" fill="white" fill-opacity="0.5"/>
<path d="M200.744 14.5391H207.188L222.073 34.1205V14.5391H228.971V46.3565H223.024L207.642 26.1306V46.3565H200.744V14.5391Z" fill="white" fill-opacity="0.5"/>
<path d="M254.123 46.9157C251.896 46.9348 249.688 46.5028 247.631 45.6457C245.696 44.8451 243.939 43.6645 242.466 42.1734C240.993 40.6824 239.833 38.9111 239.054 36.9639C238.231 34.9271 237.815 32.749 237.828 30.5521V30.462C237.792 26.1317 239.455 21.9603 242.46 18.8469C243.939 17.326 245.709 16.1203 247.664 15.3021C249.792 14.4195 252.076 13.9794 254.378 14.0084C255.74 13.9982 257.099 14.1204 258.438 14.3733C259.583 14.5902 260.702 14.9252 261.778 15.3732C262.754 15.7848 263.683 16.3029 264.546 16.9181C265.388 17.5181 266.179 18.187 266.911 18.9179L262.469 24.055C261.333 23.0059 260.06 22.1178 258.684 21.4154C257.332 20.7679 255.848 20.4434 254.35 20.4676C253.103 20.4543 251.867 20.7068 250.725 21.2085C249.583 21.7102 248.561 22.4495 247.726 23.3773C246.898 24.3028 246.25 25.3747 245.815 26.5382C245.359 27.7677 245.129 29.0699 245.138 30.3815V30.4715C245.134 31.7812 245.363 33.0811 245.815 34.3101C246.244 35.4777 246.886 36.5558 247.707 37.4899C248.535 38.4293 249.555 39.1794 250.698 39.6896C251.841 40.1998 253.08 40.4581 254.331 40.447C255.924 40.4973 257.505 40.1539 258.934 39.4471C260.295 38.7043 261.553 37.7867 262.677 36.7175L267.124 41.2195C266.339 42.0732 265.49 42.8653 264.584 43.589C263.693 44.2939 262.727 44.8964 261.702 45.385C260.61 45.8998 259.46 46.2802 258.277 46.5177C256.909 46.7922 255.517 46.9256 254.123 46.9157V46.9157Z" fill="white" fill-opacity="0.5"/>
<path d="M275.371 14.5391H299.278V20.7661H282.246V27.2206H297.244V33.4476H282.269V40.1295H299.515V46.3565H275.385L275.371 14.5391Z" fill="white" fill-opacity="0.5"/>
</g>
<defs>
<clipPath id="clip0_1_34">
<rect width="299.51" height="60" fill="white"/>
</clipPath>
</defs>
</svg>
