<svg width="396" height="60" viewBox="0 0 396 60" fill="none" xmlns="http://www.w3.org/2000/svg">
<path d="M97.0444 40.214V30.0551C97.0444 24.7982 92.4338 20.5461 86.6694 20.5461H86.2207C83.9794 20.5461 81.7375 21.2547 80.649 22.4951V10.4459C80.649 8.9685 79.432 8.20161 78.2149 8.20161C76.9979 8.20161 75.7814 8.96898 75.7814 10.4459V47.5968C75.7814 49.0145 76.9984 49.7231 78.2149 49.7231C79.304 49.7231 80.3925 49.132 80.5848 47.9523C81.4811 48.7784 83.3385 49.7231 86.0922 49.7231H86.6689C92.3691 49.7231 97.0444 45.471 97.0444 40.214ZM92.1774 40.214C92.1774 42.9901 89.7438 45.2349 86.6694 45.2349H86.0927C83.211 45.2349 80.6495 43.4627 80.6495 40.5686V29.5826C80.6495 26.8652 83.2116 25.0347 86.0927 25.0347H86.6694C89.7438 25.0347 92.1774 27.2795 92.1774 30.0551V40.214ZM117.475 47.4783C117.475 46.3564 116.706 45.2349 115.041 45.2349C113.055 45.1752 111.519 43.758 111.519 41.9265V10.4459C111.519 8.9685 110.302 8.20161 109.085 8.20161C107.868 8.20161 106.651 8.96898 106.651 10.4459V41.9265C106.651 46.2379 110.366 49.7231 115.041 49.7231C116.706 49.7231 117.475 48.6007 117.475 47.4783ZM145.397 40.214V30.0551C145.397 24.7982 140.786 20.5461 135.086 20.5461H134.446C128.746 20.5461 124.135 24.7982 124.135 30.0551V40.214C124.135 45.471 128.746 49.7231 134.446 49.7231H135.086C140.786 49.7231 145.397 45.471 145.397 40.214ZM140.53 40.214C140.53 42.9901 138.096 45.2349 135.086 45.2349H134.51C131.436 45.2349 129.002 42.9901 129.002 40.214V30.0551C129.002 27.2795 131.436 25.0347 134.446 25.0347H135.086C138.096 25.0347 140.53 27.2795 140.53 30.0551V40.214V40.214ZM174.921 40.214C174.921 38.6788 173.704 37.9109 172.487 37.9109C171.335 37.9109 170.117 38.6788 170.054 40.214C169.926 42.9901 167.62 45.2349 164.61 45.2349H164.033C160.959 45.2349 158.526 42.9901 158.526 40.214V30.0551C158.526 27.2795 160.959 25.0347 163.97 25.0347H164.609C167.62 25.0347 169.925 27.1017 170.053 30.1139C170.117 31.5913 171.334 32.2999 172.487 32.2999C173.704 32.2999 174.92 31.5316 174.92 30.0551C174.92 24.7982 170.245 20.5461 164.609 20.5461H163.969C158.333 20.5461 153.658 24.7394 153.658 30.0551V40.214C153.658 45.471 158.269 49.7231 163.969 49.7231H164.609C170.31 49.7231 174.921 45.471 174.921 40.214ZM205.597 47.4783C205.597 47.1242 205.534 46.7114 205.278 46.3564L196.503 32.1809L204.444 24.3848C204.957 23.9123 205.149 23.381 205.149 22.8491C205.149 21.667 204.059 20.5456 202.652 20.5456C202.075 20.5456 201.435 20.7811 200.922 21.3134L188.754 33.2441V10.4459C188.754 8.9685 187.537 8.20161 186.32 8.20161C185.103 8.20161 183.886 8.96898 183.886 10.4459V47.4783C183.886 48.9552 185.103 49.7231 186.32 49.7231C187.537 49.7231 188.754 48.9552 188.754 47.4783V39.8585L193.044 35.6064L201.05 48.5409C201.562 49.369 202.331 49.7231 203.099 49.7231C204.573 49.7231 205.597 48.6594 205.597 47.4783ZM233.263 40.214C233.263 38.6788 232.046 37.9109 230.829 37.9109C229.677 37.9109 228.459 38.6788 228.395 40.214C228.267 42.9901 225.962 45.2349 222.953 45.2349H222.375C219.301 45.2349 216.868 42.9901 216.868 40.214V30.0551C216.868 27.2795 219.301 25.0347 222.312 25.0347H222.953C225.962 25.0347 228.267 27.1017 228.395 30.1139C228.459 31.5913 229.678 32.2999 230.829 32.2999C232.046 32.2999 233.263 31.5316 233.263 30.0551C233.263 24.7982 228.588 20.5461 222.953 20.5461H222.312C216.676 20.5461 212.001 24.7394 212.001 30.0551V40.214C212.001 45.471 216.612 49.7231 222.312 49.7231H222.953C228.652 49.7231 233.263 45.471 233.263 40.214ZM263.492 47.4783V30.0551C263.492 24.7982 258.881 20.5461 253.18 20.5461H252.668C250.426 20.5461 248.184 21.2547 247.095 22.3178V10.4459C247.095 8.9685 245.879 8.20161 244.663 8.20161C243.446 8.20161 242.23 8.96898 242.23 10.4459V47.4783C242.23 48.9552 243.446 49.7231 244.663 49.7231C245.879 49.7231 247.095 48.9552 247.095 47.4783V29.7598C247.095 26.6879 249.979 25.0347 252.925 25.0347C255.742 25.0347 258.624 26.6296 258.624 30.0551V47.4783C258.624 48.9552 259.841 49.7231 261.057 49.7231C262.275 49.7231 263.492 48.9552 263.492 47.4783ZM295.513 47.421C295.513 46.4749 294.872 45.5297 293.464 45.2937C292.311 45.1169 291.798 44.4069 291.798 43.3442V29.6408C291.798 24.5616 287.444 20.5456 281.744 20.5456H281.295C277.901 20.5456 273.802 21.786 271.752 26.0386C271.561 26.3926 271.496 26.7467 271.496 27.1017C271.496 28.3421 272.714 29.1688 273.93 29.1688C274.763 29.1688 275.595 28.8147 276.108 27.9871C277.325 26.0381 278.67 25.0342 281.295 25.0342H281.744C284.562 25.0342 286.931 26.3339 286.931 29.8176C286.931 30.1134 286.931 30.586 286.74 30.822C285.204 32.8308 270.985 31.1761 270.536 40.5083V41.2169C270.536 46.7109 275.66 49.7226 280.848 49.7226H281.424C284.05 49.7226 286.484 48.8367 288.341 47.3612C289.174 48.4831 290.519 49.369 292.696 49.6638C292.824 49.7226 293.016 49.7226 293.145 49.7226C294.681 49.7231 295.513 48.6007 295.513 47.421ZM286.931 40.214C286.931 42.9901 284.433 45.2349 281.424 45.2349H280.847C277.581 45.2349 275.404 43.64 275.404 41.0999V40.6268C275.595 36.4923 282.192 36.7293 286.931 35.5481V40.214ZM308.065 47.4783V22.7904C308.065 21.3134 306.848 20.5461 305.632 20.5461C304.416 20.5461 303.198 21.3139 303.198 22.7904V47.4783C303.198 48.9552 304.416 49.7231 305.632 49.7231C306.848 49.7231 308.065 48.9552 308.065 47.4783ZM339.574 47.4783V30.0551C339.574 23.5577 334.771 20.5461 329.327 20.5461H328.751C326.508 20.5461 324.396 21.2547 323.243 22.3178C322.988 21.1357 321.897 20.5461 320.809 20.5461C319.528 20.5461 318.311 21.3727 318.311 22.7904V47.4783C318.311 48.9552 319.528 49.7231 320.745 49.7231C321.963 49.7231 323.179 48.9552 323.179 47.4783V30.0551C323.179 27.2795 325.677 25.0347 328.686 25.0347H329.263C332.337 25.0347 334.771 27.2795 334.771 30.0551V47.4783C334.771 48.9552 335.988 49.7231 337.205 49.7231C338.422 49.7231 339.574 48.9552 339.574 47.4783ZM364.706 47.4783V22.7904C364.706 21.3134 363.489 20.5461 362.272 20.5461C361.056 20.5461 359.84 21.3139 359.84 22.7904V47.4783C359.84 48.9552 361.057 49.7231 362.272 49.7231C363.49 49.7231 364.706 48.9552 364.706 47.4783ZM395.51 40.214V30.0551C395.51 24.7982 390.899 20.5461 385.2 20.5461H384.559C378.859 20.5461 374.249 24.7982 374.249 30.0551V40.214C374.249 45.471 378.859 49.7231 384.559 49.7231H385.2C390.899 49.7231 395.51 45.471 395.51 40.214ZM390.643 40.214C390.643 42.9901 388.21 45.2349 385.2 45.2349H384.623C381.548 45.2349 379.115 42.9901 379.115 40.214V30.0551C379.115 27.2795 381.548 25.0347 384.559 25.0347H385.2C388.21 25.0347 390.643 27.2795 390.643 30.0551V40.214Z" fill="white" fill-opacity="0.5"/>
<path d="M27.5557 27.5209C26.0727 27.5209 24.8667 28.6336 24.8667 30.0007C24.8667 31.3679 26.0732 32.4801 27.5557 32.4801C29.0381 32.4801 30.2451 31.3679 30.2451 30.0007C30.2451 28.6336 29.0386 27.5209 27.5557 27.5209Z" fill="white" fill-opacity="0.5"/>
<path d="M39.9888 20.6403C38.5058 20.6403 37.3009 21.753 37.3009 23.1202C37.3009 24.4878 38.5063 25.5995 39.9888 25.5995C41.4712 25.5995 42.6788 24.4873 42.6788 23.1202C42.6793 21.753 41.4717 20.6403 39.9888 20.6403Z" fill="white" fill-opacity="0.5"/>
<path d="M52.4224 13.7607C50.94 13.7607 49.7335 14.8729 49.7335 16.2401C49.7335 17.6077 50.94 18.7214 52.4224 18.7214C53.9059 18.7214 55.1114 17.6082 55.1114 16.2401C55.1114 14.8729 53.9059 13.7607 52.4224 13.7607Z" fill="white" fill-opacity="0.5"/>
<path d="M15.1215 6.8801C13.6391 6.8801 12.4326 7.99278 12.4326 9.36045C12.4326 10.7276 13.6391 11.8398 15.1215 11.8398C16.6045 11.8398 17.811 10.7276 17.811 9.36045C17.811 7.99278 16.605 6.8801 15.1215 6.8801Z" fill="white" fill-opacity="0.5"/>
<path d="M27.5556 0C26.0727 0 24.8667 1.11317 24.8667 2.48035C24.8667 3.84802 26.0732 4.9607 27.5556 4.9607C29.0381 4.9607 30.2451 3.84802 30.2451 2.48035C30.2451 1.11317 29.0386 0 27.5556 0Z" fill="white" fill-opacity="0.5"/>
<path d="M27.5557 13.7607C26.0727 13.7607 24.8667 14.8729 24.8667 16.2401C24.8667 17.6077 26.0732 18.7214 27.5557 18.7214C29.0381 18.7214 30.2451 17.6082 30.2451 16.2401C30.2451 14.8729 29.0386 13.7607 27.5557 13.7607Z" fill="white" fill-opacity="0.5"/>
<path d="M39.9888 6.8801C38.5058 6.8801 37.3009 7.99278 37.3009 9.36045C37.3009 10.7276 38.5063 11.8398 39.9888 11.8398C41.4712 11.8398 42.6788 10.7276 42.6788 9.36045C42.6793 7.99278 41.4717 6.8801 39.9888 6.8801Z" fill="white" fill-opacity="0.5"/>
<path d="M39.9888 34.401C38.5058 34.401 37.3009 35.5132 37.3009 36.8798C37.3009 38.2475 38.5063 39.3597 39.9888 39.3597C41.4712 39.3597 42.6788 38.2475 42.6788 36.8798C42.6793 35.5132 41.4717 34.401 39.9888 34.401Z" fill="white" fill-opacity="0.5"/>
<path d="M52.4224 27.5209C50.94 27.5209 49.7335 28.6336 49.7335 30.0007C49.7335 31.3679 50.94 32.4801 52.4224 32.4801C53.9059 32.4801 55.1114 31.3679 55.1114 30.0007C55.1114 28.6336 53.9059 27.5209 52.4224 27.5209Z" fill="white" fill-opacity="0.5"/>
<path d="M39.9888 48.1607C38.5058 48.1607 37.3009 49.2729 37.3009 50.6405C37.3009 52.0077 38.5063 53.1199 39.9888 53.1199C41.4712 53.1199 42.6788 52.0077 42.6788 50.6405C42.6793 49.2729 41.4717 48.1607 39.9888 48.1607Z" fill="white" fill-opacity="0.5"/>
<path d="M52.4224 41.2806C50.94 41.2806 49.7335 42.3928 49.7335 43.7604C49.7335 45.1276 50.94 46.2398 52.4224 46.2398C53.9059 46.2398 55.1114 45.1276 55.1114 43.7604C55.1114 42.3928 53.9059 41.2806 52.4224 41.2806Z" fill="white" fill-opacity="0.5"/>
<path d="M27.5557 55.0408C26.0727 55.0408 24.8667 56.1534 24.8667 57.5206C24.8667 58.8873 26.0732 60 27.5557 60C29.0381 60 30.2451 58.8873 30.2451 57.5206C30.2451 56.1534 29.0386 55.0408 27.5557 55.0408Z" fill="white" fill-opacity="0.5"/>
<path d="M27.5557 41.2806C26.0727 41.2806 24.8667 42.3928 24.8667 43.7604C24.8667 45.1276 26.0732 46.2398 27.5557 46.2398C29.0381 46.2398 30.2451 45.1276 30.2451 43.7604C30.2451 42.3928 29.0386 41.2806 27.5557 41.2806Z" fill="white" fill-opacity="0.5"/>
<path d="M15.1215 20.6403C13.6391 20.6403 12.4326 21.753 12.4326 23.1202C12.4326 24.4878 13.6391 25.5995 15.1215 25.5995C16.6045 25.5995 17.811 24.4873 17.811 23.1202C17.811 21.753 16.605 20.6403 15.1215 20.6403Z" fill="white" fill-opacity="0.5"/>
<path d="M15.1215 48.1607C13.6391 48.1607 12.4326 49.2729 12.4326 50.6405C12.4326 52.0077 13.6391 53.1199 15.1215 53.1199C16.6045 53.1199 17.811 52.0077 17.811 50.6405C17.811 49.2729 16.605 48.1607 15.1215 48.1607Z" fill="white" fill-opacity="0.5"/>
<path d="M15.1215 34.401C13.6391 34.401 12.4326 35.5132 12.4326 36.8798C12.4326 38.2475 13.6391 39.3597 15.1215 39.3597C16.6045 39.3597 17.811 38.2475 17.811 36.8798C17.811 35.5132 16.605 34.401 15.1215 34.401Z" fill="white" fill-opacity="0.5"/>
<path d="M2.68842 13.7607C1.20545 13.7607 0 14.8729 0 16.24C0 17.6077 1.20597 18.7214 2.68842 18.7214C4.17087 18.7214 5.3779 17.6082 5.3779 16.24C5.3779 14.8729 4.17087 13.7607 2.68842 13.7607Z" fill="white" fill-opacity="0.5"/>
<path d="M2.68842 41.2806C1.20545 41.2806 0 42.3928 0 43.7604C0 45.1276 1.20597 46.2398 2.68842 46.2398C4.17087 46.2398 5.3779 45.1276 5.3779 43.7604C5.3779 42.3928 4.17087 41.2806 2.68842 41.2806Z" fill="white" fill-opacity="0.5"/>
<path d="M2.68842 27.5209C1.20545 27.5209 0 28.6335 0 30.0007C0 31.3679 1.20597 32.4801 2.68842 32.4801C4.17087 32.4801 5.3779 31.3679 5.3779 30.0007C5.3779 28.6335 4.17087 27.5209 2.68842 27.5209Z" fill="white" fill-opacity="0.5"/>
<path d="M305.592 8.07826C304.243 8.07826 303.144 9.08993 303.144 10.3342C303.144 11.5785 304.243 12.5907 305.592 12.5907C306.94 12.5907 308.039 11.5785 308.039 10.3342C308.039 9.08993 306.941 8.07826 305.592 8.07826Z" fill="white" fill-opacity="0.5"/>
<path d="M362.251 8.07826C360.902 8.07826 359.804 9.08993 359.804 10.3342C359.804 11.5785 360.903 12.5907 362.251 12.5907C363.601 12.5907 364.698 11.5785 364.698 10.3342C364.699 9.08993 363.601 8.07826 362.251 8.07826Z" fill="white" fill-opacity="0.5"/>
<path d="M349.416 45.3962C348.075 45.3962 346.982 46.4025 346.982 47.64C346.982 48.8775 348.075 49.8848 349.416 49.8848C350.758 49.8848 351.85 48.8775 351.85 47.64C351.85 46.4025 350.758 45.3962 349.416 45.3962Z" fill="white" fill-opacity="0.5"/>
</svg>
