<svg width="192" height="60" viewBox="0 0 192 60" fill="none" xmlns="http://www.w3.org/2000/svg">
<g clip-path="url(#clip0_1_80)">
<path d="M54.4356 34.5233C54.4328 34.7319 54.3639 34.9306 54.2439 35.076C54.124 35.2214 53.9628 35.3017 53.7956 35.2993H42.0089C42.3111 38.9357 44.4978 42.2616 47.5911 42.2616C49.7067 42.2616 51.2711 41.2639 52.4445 39.1574C52.4991 39.0468 52.5747 38.9545 52.6646 38.8888C52.7544 38.8231 52.8559 38.7859 52.96 38.7805C53.0376 38.7777 53.1149 38.7948 53.1871 38.8306C53.2593 38.8664 53.3248 38.9202 53.3798 38.9887C53.4347 39.0572 53.4778 39.1389 53.5065 39.229C53.5352 39.319 53.5489 39.4154 53.5467 39.5122C53.5471 39.646 53.5162 39.7769 53.4578 39.8891C52.2667 42.4612 49.9022 43.7251 47.5911 43.7251C43.6267 43.7251 40.7822 39.2905 40.7822 34.5676C40.7822 29.8448 43.6089 25.4102 47.5911 25.4102C51.5733 25.4102 54.4178 29.8004 54.4356 34.5233V34.5233ZM53.1733 33.8359C52.9245 30.1996 50.6845 26.8736 47.5911 26.8736C44.4978 26.8736 42.3111 30.1996 42.0089 33.8359H53.1733Z" fill="white" fill-opacity="0.5"/>
<path d="M68.7644 25.765C68.9186 25.7705 69.0653 25.8494 69.1743 25.9855C69.2834 26.1215 69.3466 26.3044 69.3511 26.4967C69.3533 26.5935 69.3397 26.6899 69.311 26.7799C69.2822 26.8699 69.2391 26.9517 69.1842 27.0202C69.1293 27.0887 69.0637 27.1425 68.9915 27.1783C68.9194 27.2141 68.8421 27.2311 68.7644 27.2284H65.6V42.7273C65.5986 42.9208 65.5364 43.1059 65.4266 43.2427C65.3169 43.3796 65.1685 43.4572 65.0133 43.459C64.8592 43.4534 64.7125 43.3745 64.6034 43.2385C64.4944 43.1025 64.4311 42.9196 64.4267 42.7273V27.2284H61.3867C61.309 27.2311 61.2317 27.2141 61.1596 27.1783C61.0874 27.1425 61.0218 27.0887 60.9669 27.0202C60.912 26.9517 60.8689 26.8699 60.8402 26.7799C60.8115 26.6899 60.7978 26.5935 60.8 26.4967C60.8014 26.3032 60.8636 26.118 60.9734 25.9812C61.0831 25.8443 61.2315 25.7667 61.3867 25.765H64.4267V20.1109C64.427 19.9235 64.4808 19.7424 64.5786 19.6002C64.6764 19.4579 64.8116 19.3638 64.96 19.3348C65.0429 19.3211 65.1273 19.3298 65.2073 19.3605C65.2873 19.3911 65.361 19.443 65.4235 19.5125C65.4859 19.5819 65.5356 19.6674 65.5692 19.763C65.6027 19.8586 65.6193 19.9622 65.6178 20.0665V25.765H68.7644Z" fill="white" fill-opacity="0.5"/>
<path d="M88.0533 33.2594V42.6386C88.0489 42.8309 87.9856 43.0138 87.8766 43.1498C87.7675 43.2858 87.6208 43.3647 87.4667 43.3703C87.389 43.373 87.3118 43.356 87.2396 43.3202C87.1674 43.2844 87.1018 43.2306 87.0469 43.1621C86.992 43.0936 86.9489 43.0118 86.9202 42.9218C86.8915 42.8318 86.8778 42.7354 86.88 42.6386V33.2594C86.88 30.0887 85.44 26.9401 82.6133 26.9401C78.9867 26.9401 77.4222 30.8869 77.6356 34.9446C77.6356 35.0554 77.6711 35.5211 77.6711 35.5876V42.6164C77.6708 42.8038 77.6169 42.9848 77.5192 43.1271C77.4214 43.2693 77.2862 43.3634 77.1378 43.3925C77.0548 43.4062 76.9705 43.3974 76.8905 43.3668C76.8105 43.3361 76.7367 43.2843 76.6743 43.2148C76.6118 43.1454 76.5622 43.0599 76.5286 42.9643C76.4951 42.8686 76.4785 42.7651 76.48 42.6608V11.8182C76.4814 11.6247 76.5437 11.4396 76.6534 11.3027C76.7631 11.1659 76.9115 11.0882 77.0667 11.0865C77.2208 11.0921 77.3675 11.1709 77.4766 11.307C77.5856 11.443 77.6489 11.6259 77.6533 11.8182V29.2461C78.6667 26.9845 80.48 25.4545 82.5956 25.4545C86.08 25.4545 88.0533 29.2461 88.0533 33.2594Z" fill="white" fill-opacity="0.5"/>
<path d="M109.227 34.5233C109.224 34.7319 109.155 34.9306 109.035 35.076C108.915 35.2214 108.754 35.3017 108.587 35.2993H96.8C97.1022 38.9357 99.2889 42.2616 102.382 42.2616C104.498 42.2616 106.062 41.2639 107.236 39.1574C107.29 39.0468 107.366 38.9545 107.456 38.8888C107.546 38.8231 107.647 38.7859 107.751 38.7805C107.829 38.7777 107.906 38.7948 107.978 38.8306C108.05 38.8664 108.116 38.9202 108.171 38.9887C108.226 39.0572 108.269 39.1389 108.298 39.229C108.326 39.319 108.34 39.4154 108.338 39.5122C108.338 39.646 108.307 39.7769 108.249 39.8891C107.058 42.4612 104.693 43.7251 102.382 43.7251C98.4178 43.7251 95.5733 39.2905 95.5733 34.5676C95.5733 29.8448 98.4 25.4102 102.382 25.4102C106.329 25.4102 109.209 29.8004 109.227 34.5233V34.5233ZM107.947 33.8359C107.698 30.1996 105.458 26.8736 102.364 26.8736C99.2711 26.8736 97.0844 30.1996 96.7822 33.8359H107.947Z" fill="white" fill-opacity="0.5"/>
<path d="M123.716 26.4523C123.727 26.6492 123.675 26.8436 123.572 26.9932C123.469 27.1427 123.322 27.2352 123.164 27.2506C119.698 27.8936 118.133 31.4191 118.133 35.5211V42.5499C118.133 42.7372 118.079 42.9183 117.981 43.0606C117.884 43.2028 117.748 43.2969 117.6 43.3259C117.517 43.3397 117.433 43.3309 117.353 43.3003C117.273 43.2696 117.199 43.2178 117.137 43.1483C117.074 43.0788 117.024 42.9934 116.991 42.8977C116.957 42.8021 116.941 42.6986 116.942 42.5942V26.5632C116.943 26.3758 116.996 26.1948 117.094 26.0525C117.192 25.9103 117.327 25.8162 117.476 25.7871C117.559 25.7734 117.643 25.7822 117.723 25.8128C117.803 25.8435 117.877 25.8953 117.939 25.9648C118.001 26.0342 118.051 26.1197 118.085 26.2153C118.118 26.311 118.135 26.4145 118.133 26.5188V29.7783C119.111 27.7162 121.049 25.765 123.076 25.765C123.378 25.765 123.716 26.031 123.716 26.4523Z" fill="white" fill-opacity="0.5"/>
<path d="M143.093 34.5233C143.091 34.7319 143.022 34.9306 142.902 35.076C142.782 35.2214 142.621 35.3017 142.453 35.2993H130.667C130.969 38.9357 133.156 42.2616 136.249 42.2616C138.364 42.2616 139.929 41.2639 141.102 39.1574C141.157 39.0468 141.232 38.9545 141.322 38.8888C141.412 38.8231 141.514 38.7859 141.618 38.7805C141.695 38.7777 141.773 38.7948 141.845 38.8306C141.917 38.8664 141.983 38.9202 142.038 38.9887C142.092 39.0572 142.136 39.1389 142.164 39.229C142.193 39.319 142.207 39.4154 142.204 39.5122C142.205 39.646 142.174 39.7769 142.116 39.8891C140.924 42.4612 138.56 43.7251 136.249 43.7251C132.284 43.7251 129.44 39.2905 129.44 34.5676C129.44 29.8448 132.267 25.4102 136.249 25.4102C140.231 25.4102 143.076 29.8004 143.093 34.5233V34.5233ZM141.831 33.8359C141.582 30.1996 139.342 26.8736 136.249 26.8736C133.156 26.8736 130.969 30.1996 130.667 33.8359H141.831Z" fill="white" fill-opacity="0.5"/>
<path d="M162.151 26.6297V42.7273C162.147 42.9196 162.083 43.1025 161.974 43.2385C161.865 43.3745 161.719 43.4534 161.564 43.459C161.487 43.4617 161.41 43.4447 161.337 43.4089C161.265 43.3731 161.2 43.3193 161.145 43.2508C161.09 43.1823 161.047 43.1005 161.018 43.0105C160.989 42.9205 160.976 42.8241 160.978 42.7273V39.6674C160 42.0843 158.276 43.8359 156.071 43.8359C152.569 43.8359 150.631 40.0443 150.631 36.031V26.6075C150.632 26.414 150.695 26.2289 150.804 26.0921C150.914 25.9552 151.063 25.8776 151.218 25.8758C151.372 25.8814 151.519 25.9603 151.628 26.0963C151.737 26.2323 151.8 26.4152 151.804 26.6075V36.031C151.804 39.2018 153.244 42.3503 156.071 42.3503C160.036 42.3503 160.978 37.7162 160.978 32.5942V26.5854C160.979 26.4667 161.003 26.3502 161.048 26.2456C161.093 26.141 161.157 26.0512 161.235 25.9839C161.314 25.9166 161.404 25.8737 161.498 25.8588C161.593 25.8438 161.688 25.8573 161.778 25.898C161.89 25.9628 161.984 26.0661 162.05 26.1958C162.116 26.3254 162.151 26.476 162.151 26.6297V26.6297Z" fill="white" fill-opacity="0.5"/>
<path d="M192 33.1929V42.6164C191.996 42.8087 191.932 42.9916 191.823 43.1276C191.714 43.2637 191.568 43.3425 191.413 43.3481C191.336 43.3509 191.258 43.3338 191.186 43.298C191.114 43.2622 191.049 43.2084 190.994 43.1399C190.939 43.0714 190.896 42.9897 190.867 42.8996C190.838 42.8096 190.824 42.7132 190.827 42.6164V33.1929C190.827 30.0222 189.387 26.918 186.56 26.918C183.004 26.918 181.653 31.663 181.653 35.3437V42.6164C181.649 42.8087 181.586 42.9916 181.477 43.1276C181.367 43.2637 181.221 43.3425 181.067 43.3481C180.989 43.3509 180.912 43.3338 180.84 43.298C180.767 43.2622 180.702 43.2084 180.647 43.1399C180.592 43.0714 180.549 42.9897 180.52 42.8996C180.491 42.8096 180.478 42.7132 180.48 42.6164V33.1929C180.48 30.0222 179.04 26.918 176.213 26.918C172.622 26.918 171.147 30.4435 171.271 35.1441C171.271 35.255 171.307 35.4545 171.271 35.5211V42.5942C171.271 42.7816 171.217 42.9627 171.119 43.1049C171.021 43.2472 170.886 43.3413 170.738 43.3703C170.655 43.384 170.57 43.3753 170.49 43.3446C170.41 43.314 170.337 43.2621 170.274 43.1926C170.212 43.1232 170.162 43.0377 170.129 42.9421C170.095 42.8465 170.079 42.7429 170.08 42.6386V26.5632C170.08 26.3758 170.134 26.1948 170.232 26.0525C170.33 25.9103 170.465 25.8162 170.613 25.7871C170.696 25.7734 170.781 25.7822 170.861 25.8128C170.941 25.8435 171.014 25.8953 171.077 25.9648C171.139 26.0342 171.189 26.1197 171.222 26.2153C171.256 26.311 171.273 26.4145 171.271 26.5188V29.2018C172.284 26.9401 174.098 25.4545 176.213 25.4545C178.613 25.4545 180.48 27.3614 181.244 30.133C182.222 27.3836 184.124 25.4545 186.56 25.4545C190.027 25.4545 192 29.2018 192 33.1929Z" fill="white" fill-opacity="0.5"/>
<path opacity="0.6" d="M14.7556 22.1951L0 30.5543L14.7556 41.4412L29.5289 30.5543L14.7556 22.1951Z" fill="white" fill-opacity="0.5"/>
<path opacity="0.45" d="M0 30.5543L14.7556 41.4412V0L0 30.5543Z" fill="white" fill-opacity="0.5"/>
<path opacity="0.8" d="M14.7556 0V41.4412L29.5289 30.5543L14.7556 0Z" fill="white" fill-opacity="0.5"/>
<path opacity="0.45" d="M0 34.0577L14.7556 60V44.9224L0 34.0577Z" fill="white" fill-opacity="0.5"/>
<path opacity="0.8" d="M14.7556 44.9224V60L29.5289 34.0577L14.7556 44.9224Z" fill="white" fill-opacity="0.5"/>
</g>
<defs>
<clipPath id="clip0_1_80">
<rect width="192" height="60" fill="white"/>
</clipPath>
</defs>
</svg>
