<svg width="41" height="19" viewBox="0 0 41 19" fill="none" xmlns="http://www.w3.org/2000/svg">
<path d="M18.675 4.72501V0.750008H25.6V19H21.15V4.72501H18.675Z" fill="url(#paint0_linear_2_6)"/>
<path d="M18.675 4.72501V0.750008H25.6V19H21.15V4.72501H18.675Z" fill="url(#paint1_linear_2_6)"/>
<path d="M28.3744 15.575C28.9411 15.125 29.1994 14.9167 29.1494 14.95C30.7827 13.6 32.0661 12.4917 32.9994 11.625C33.9494 10.7583 34.7494 9.85001 35.3994 8.90001C36.0494 7.95001 36.3744 7.02501 36.3744 6.12501C36.3744 5.44167 36.2161 4.90834 35.8994 4.52501C35.5827 4.14167 35.1077 3.95001 34.4744 3.95001C33.8411 3.95001 33.3411 4.19167 32.9744 4.67501C32.6244 5.14167 32.4494 5.80834 32.4494 6.67501H28.3244C28.3577 5.25834 28.6577 4.07501 29.2244 3.12501C29.8077 2.17501 30.5661 1.47501 31.4994 1.02501C32.4494 0.575006 33.4994 0.350006 34.6494 0.350006C36.6327 0.350006 38.1244 0.858339 39.1244 1.87501C40.1411 2.89167 40.6494 4.21667 40.6494 5.85001C40.6494 7.63334 40.0411 9.29167 38.8244 10.825C37.6077 12.3417 36.0577 13.825 34.1744 15.275H40.9244V18.75H28.3744V15.575Z" fill="url(#paint2_linear_2_6)"/>
<path d="M28.3744 15.575C28.9411 15.125 29.1994 14.9167 29.1494 14.95C30.7827 13.6 32.0661 12.4917 32.9994 11.625C33.9494 10.7583 34.7494 9.85001 35.3994 8.90001C36.0494 7.95001 36.3744 7.02501 36.3744 6.12501C36.3744 5.44167 36.2161 4.90834 35.8994 4.52501C35.5827 4.14167 35.1077 3.95001 34.4744 3.95001C33.8411 3.95001 33.3411 4.19167 32.9744 4.67501C32.6244 5.14167 32.4494 5.80834 32.4494 6.67501H28.3244C28.3577 5.25834 28.6577 4.07501 29.2244 3.12501C29.8077 2.17501 30.5661 1.47501 31.4994 1.02501C32.4494 0.575006 33.4994 0.350006 34.6494 0.350006C36.6327 0.350006 38.1244 0.858339 39.1244 1.87501C40.1411 2.89167 40.6494 4.21667 40.6494 5.85001C40.6494 7.63334 40.0411 9.29167 38.8244 10.825C37.6077 12.3417 36.0577 13.825 34.1744 15.275H40.9244V18.75H28.3744V15.575Z" fill="url(#paint3_linear_2_6)"/>
<path d="M16.25 19H11.975L4.82499 8.175V19H0.549988V1.45H4.82499L11.975 12.325V1.45H16.25V19Z" fill="white"/>
<defs>
<linearGradient id="paint0_linear_2_6" x1="30" y1="-9" x2="30" y2="29" gradientUnits="userSpaceOnUse">
<stop stop-color="#D41DD8"/>
<stop offset="1" stop-color="#F100F5" stop-opacity="0"/>
</linearGradient>
<linearGradient id="paint1_linear_2_6" x1="30" y1="-9" x2="30" y2="29" gradientUnits="userSpaceOnUse">
<stop stop-color="#560869"/>
<stop offset="0.0416667" stop-color="#A80FAB" stop-opacity="0.958333"/>
<stop offset="0.484375" stop-color="#C221DC" stop-opacity="0.78125"/>
<stop offset="1" stop-color="#AD14E2" stop-opacity="0"/>
</linearGradient>
<linearGradient id="paint2_linear_2_6" x1="30" y1="-9" x2="30" y2="29" gradientUnits="userSpaceOnUse">
<stop stop-color="#D41DD8"/>
<stop offset="1" stop-color="#F100F5" stop-opacity="0"/>
</linearGradient>
<linearGradient id="paint3_linear_2_6" x1="30" y1="-9" x2="30" y2="29" gradientUnits="userSpaceOnUse">
<stop stop-color="#560869"/>
<stop offset="0.0416667" stop-color="#A80FAB" stop-opacity="0.958333"/>
<stop offset="0.484375" stop-color="#C221DC" stop-opacity="0.78125"/>
<stop offset="1" stop-color="#AD14E2" stop-opacity="0"/>
</linearGradient>
</defs>
</svg>
